<?xml version="1.0" encoding="utf-8"?>
<svg version="1.1" id="Layer_1" xmlns="http://www.w3.org/2000/svg" xmlns:xlink="http://www.w3.org/1999/xlink" x="0px" y="0px"
	 viewBox="0 0 26.4308968 30.3245144" style="enable-background:new 0 0 26.4308968 30.3245144;" xml:space="preserve">
<style type="text/css">
	.st4{fill:#0063FF;}
	.st13{fill:#001959;}
</style>
<g>
	<g>
		<g>
			<g>
				<path class="st13" d="M5.1947598,10.8980513v14.3364725c0,0.3652077,0.1951823,0.6465759,0.5117903,0.8286057
					l7.0002418,4.1071453c0.3149729,0.1810894,0.7024651,0.215498,1.017437,0.0344086l6.9988642-4.1290779
					c0.317461-0.1825218,0.5131683-0.4748898,0.5131683-0.8410816V10.8853922l-8.02075,4.7744884L5.1947598,10.8980513z"/>
				<path class="st13" d="M2.8238688,23.7349052V9.8956175c0-0.2115211,0.0533893-0.4787779,0.466985-0.683486l9.6332426-5.7334423
					c0.1806459-0.1029196,0.4021835-0.1029191,0.5828285,0.0000017l9.8131723,5.839551
					c0.1837845,0.1047087,0.2905769,0.1732845,0.286932,0.4141016l-0.0000267,14.0025616
					c0,0.2904377,0.3206234,0.4272461,0.574646,0.2864399l1.9725418-1.1714516
					c0.1871586-0.1037445,0.2767067-0.2600651,0.2767067-0.4740562V8.051033c0-0.2523961-0.0843887-0.3387899-0.2657814-0.4441457
					L13.5102959,0.0796336c-0.1823397-0.1059057-0.4073982-0.1061957-0.5900097-0.0007605L0.2895055,7.5993509
					C0.1073723,7.7045097,0,7.8838935,0,8.0942049v14.2816324c0,0.2063885,0.0869982,0.3603802,0.2637736,0.466898
					l1.9918916,1.1825638C2.5098464,24.1784592,2.8238688,24.0316639,2.8238688,23.7349052z"/>
			</g>
		</g>
		<polygon class="st4" points="18.9316616,9.5542088 13.2154808,6.1606183 13.2154808,6.1606183 13.2154808,6.1606183
			13.2153721,6.1606183 13.2153721,6.1606183 7.499301,9.5542088 13.2154808,12.9479084 13.2154808,12.9479084
			13.2154808,12.9479084 		"/>
	</g>
</g>
</svg>
